<svg xmlns="http://www.w3.org/2000/svg" xmlns:xlink="http://www.w3.org/1999/xlink" width="108" height="108" viewBox="0 0 108 108">
  <defs>
    <filter id="Trazado_978624" x="0" y="0" width="108" height="108" filterUnits="userSpaceOnUse">
      <feOffset dy="3" input="SourceAlpha"/>
      <feGaussianBlur stdDeviation="3" result="blur"/>
      <feFlood flood-opacity="0.161"/>
      <feComposite operator="in" in2="blur"/>
      <feComposite in="SourceGraphic"/>
    </filter>
  </defs>
  <g id="_14" data-name="14" transform="translate(-197 -3899)">
    <g transform="matrix(1, 0, 0, 1, 197, 3899)" filter="url(#Trazado_978624)">
      <g id="Trazado_978624-2" data-name="Trazado 978624" transform="translate(9 6)" fill="#f5e9a1">
        <path d="M 45 88.5 C 39.12687683105469 88.5 33.43022537231445 87.35007476806641 28.06830024719238 85.08217620849609 C 22.88852500915527 82.89131164550781 18.23629951477051 79.75458526611328 14.2408504486084 75.75914764404297 C 10.24541282653809 71.76370239257812 7.108687400817871 67.11147308349609 4.917825222015381 61.93170166015625 C 2.649924993515015 56.56977462768555 1.5 50.87312316894531 1.5 45 C 1.5 39.12687683105469 2.649924993515015 33.43022537231445 4.917825222015381 28.06830024719238 C 7.108687400817871 22.88852500915527 10.24541282653809 18.23629951477051 14.2408504486084 14.2408504486084 C 18.23629951477051 10.24541282653809 22.88852500915527 7.108687400817871 28.06830024719238 4.917825222015381 C 33.43022537231445 2.649924993515015 39.12687683105469 1.5 45 1.5 C 50.87312316894531 1.5 56.56977462768555 2.649924993515015 61.93170166015625 4.917825222015381 C 67.11147308349609 7.108687400817871 71.76370239257812 10.24541282653809 75.75914764404297 14.2408504486084 C 79.75458526611328 18.23629951477051 82.89131164550781 22.88852500915527 85.08217620849609 28.06830024719238 C 87.35007476806641 33.43022537231445 88.5 39.12687683105469 88.5 45 C 88.5 50.87312316894531 87.35007476806641 56.56977462768555 85.08217620849609 61.93170166015625 C 82.89131164550781 67.11147308349609 79.75458526611328 71.76370239257812 75.75914764404297 75.75914764404297 C 71.76370239257812 79.75458526611328 67.11147308349609 82.89131164550781 61.93170166015625 85.08217620849609 C 56.56977462768555 87.35007476806641 50.87312316894531 88.5 45 88.5 Z" stroke="none"/>
        <path d="M 45 3 C 39.32871246337891 3 33.82865524291992 4.110054016113281 28.65262985229492 6.299339294433594 C 23.65165710449219 8.414573669433594 19.15968322753906 11.44334411621094 15.301513671875 15.301513671875 C 11.44334411621094 19.15968322753906 8.414573669433594 23.65165710449219 6.299339294433594 28.65262985229492 C 4.110054016113281 33.82865524291992 3 39.32871246337891 3 45 C 3 50.67128753662109 4.110054016113281 56.17134475708008 6.299339294433594 61.34737396240234 C 8.414573669433594 66.34834289550781 11.44334411621094 70.84031677246094 15.301513671875 74.698486328125 C 19.15968322753906 78.55665588378906 23.65165710449219 81.58542633056641 28.65262985229492 83.70066070556641 C 33.82865524291992 85.88994598388672 39.32871246337891 87 45 87 C 50.67128753662109 87 56.17134475708008 85.88994598388672 61.34737396240234 83.70066070556641 C 66.34834289550781 81.58542633056641 70.84031677246094 78.55665588378906 74.698486328125 74.698486328125 C 78.55665588378906 70.84031677246094 81.58542633056641 66.34834289550781 83.70066070556641 61.34737396240234 C 85.88994598388672 56.17134475708008 87 50.67128753662109 87 45 C 87 39.32871246337891 85.88994598388672 33.82865524291992 83.70066070556641 28.65262985229492 C 81.58542633056641 23.65165710449219 78.55665588378906 19.15968322753906 74.698486328125 15.301513671875 C 70.84031677246094 11.44334411621094 66.34834289550781 8.414573669433594 61.34737396240234 6.299339294433594 C 56.17134475708008 4.110054016113281 50.67128753662109 3 45 3 M 45 0 C 69.85281372070312 0 90 20.14718627929688 90 45 C 90 69.85281372070312 69.85281372070312 90 45 90 C 20.14718627929688 90 0 69.85281372070312 0 45 C 0 20.14718627929688 20.14718627929688 0 45 0 Z" stroke="none" fill="#bcac89"/>
      </g>
    </g>
    <g id="worldwide_2596853" transform="translate(215.964 3913.961)">
      <g id="Grupo_1144176" data-name="Grupo 1144176" transform="translate(1.509 1.514)">
        <path id="Trazado_978735" data-name="Trazado 978735" d="M58.79,138.781,61,136.719Zm6.838-30.263c-12.144,5.861-9.527,1.19-11.582-4.93-3.079-9.167-10.087-4.228-10.41-1.41-.745,6.507-4.588,3.056-3.191,9.428.919,4.189-4.919,7.9-8.514,5.274a7.346,7.346,0,0,1-2.567-7.447c.653-4.388-2.168-8.4-5.981-8.81-3.512-.381-1.957-2.759-3.686-4.941-.53-.668-1.842-.935-2.639-1.312a33.222,33.222,0,0,0-2.851,36.653l.094-.038c7.4-1.083,6.753-8.884,13.325-.086,3.222,4.313,12.577-3.534,10.464,6.364-1.192,5.582,4.575,3.48,2.683,10.569l.019.117q1.192.085,2.406.086a33.2,33.2,0,0,0,6.353-.614l9.24-8.641,4.327,4.327L65.18,140.9l2.051-2.194.011-.012-4.154-4.154-3.2-3.2a3.018,3.018,0,1,1-4.268-4.268l8.536-8.536a3.018,3.018,0,0,1,4.268,4.268l5.234,5.234a33.236,33.236,0,0,0-.7-27.929l-.225,0c-8.931,3.508-2.188,6.03-7.1,8.4Z" transform="translate(-10 -81.64)" fill="#99ebfa" fill-rule="evenodd"/>
        <g id="Grupo_1144174" data-name="Grupo 1144174" transform="translate(36.017 36.017)">
          <path id="Trazado_978736" data-name="Trazado 978736" d="M406.362,357.1a3.018,3.018,0,0,0,4.268,4.268l8.536-8.536a3.018,3.018,0,0,0-4.268-4.268Z" transform="translate(-381.822 -332.747)" fill="#ffd4b5" fill-rule="evenodd"/>
          <path id="Trazado_978737" data-name="Trazado 978737" d="M311.634,262.373l8.536-8.536a3.018,3.018,0,1,0-4.268-4.268l-8.536,8.536a3.018,3.018,0,0,0,4.268,4.268Z" transform="translate(-297.763 -248.689)" fill="#ffd4b5" fill-rule="evenodd"/>
          <path id="Trazado_978738" data-name="Trazado 978738" d="M343.8,294.543l4.268,4.268,3.2,3.2,8.536-8.536-10.67-10.67-8.536,8.536Z" transform="translate(-326.733 -277.658)" fill="#ffa96b" fill-rule="evenodd"/>
          <path id="Trazado_978739" data-name="Trazado 978739" d="M254.837,393.106l13.011-13.913-4.184-4.184L249.75,388.02a3.6,3.6,0,1,0,5.086,5.086Z" transform="translate(-248.684 -355.948)" fill="#ffa96b" fill-rule="evenodd"/>
          <path id="Trazado_978740" data-name="Trazado 978740" d="M341.787,365.381l-4.041-4.041-4.411,4.125,4.327,4.327,4.114-4.4Z" transform="translate(-320.561 -344.341)" fill="#ffc144" fill-rule="evenodd"/>
        </g>
        <g id="Grupo_1144175" data-name="Grupo 1144175" transform="translate(4.207)">
          <path id="Trazado_978741" data-name="Trazado 978741" d="M112.673,28.475a33.207,33.207,0,0,0-55.9-5.74c.8.377,2.109.643,2.639,1.312,1.73,2.182.174,4.56,3.686,4.941,3.813.413,6.635,4.422,5.981,8.81a7.345,7.345,0,0,0,2.567,7.446c3.6,2.623,9.433-1.085,8.514-5.274-1.4-6.373,2.446-2.921,3.191-9.428.323-2.818,7.331-7.757,10.41,1.41,2.056,6.12-.562,10.791,11.582,4.93,4.916-2.373-1.827-4.895,7.1-8.4Z" transform="translate(-53.922 -10.005)" fill="#b8ecbc" fill-rule="evenodd"/>
          <path id="Trazado_978742" data-name="Trazado 978742" d="M64.443,330.1c1.892-7.089-3.874-4.987-2.683-10.569,2.113-9.9-7.241-2.05-10.464-6.364-6.572-8.8-5.923-1-13.325.086l-.094.038a33.2,33.2,0,0,0,26.585,16.925Z" transform="translate(-37.877 -263.908)" fill="#b8ecbc" fill-rule="evenodd"/>
        </g>
      </g>
      <g id="Grupo_1144177" data-name="Grupo 1144177" transform="translate(0 0.005)">
        <path id="Trazado_978743" data-name="Trazado 978743" d="M75.938,52.282a4.534,4.534,0,0,0-5.151-.884l-3.84-3.84a34.7,34.7,0,0,0-5.277-34.7,1.509,1.509,0,1,0-2.344,1.9,31.449,31.449,0,0,1,2.993,4.408c-4.336,2.017-4.686,4.027-4.642,6.075.02.944.026,1.2-1.2,1.788-5.582,2.694-7.218,2.691-7.7,2.448-.425-.215-.664-1.5-.894-2.738a26.622,26.622,0,0,0-.905-3.761C44.992,17.043,41.5,16.5,39.6,16.694c-3.1.327-5.7,3.008-5.95,5.186-.281,2.453-.971,3.029-1.7,3.639-1.361,1.137-2.334,2.322-1.465,6.284a3.571,3.571,0,0,1-1.81,3.537,3.882,3.882,0,0,1-4.341.194,5.841,5.841,0,0,1-2-5.845,1.523,1.523,0,0,0,.033-.16A9.764,9.764,0,0,0,20.5,22.148,7.969,7.969,0,0,0,15.055,19,1.866,1.866,0,0,1,14,18.665a3.047,3.047,0,0,1-.314-1,6.93,6.93,0,0,0-1.295-3.049,3.726,3.726,0,0,0-1.313-1A31.672,31.672,0,0,1,49.34,6.6a1.509,1.509,0,0,0,1.4-2.676,34.708,34.708,0,0,0-42.1,53.7,1.509,1.509,0,1,0,2.266-1.993,31.652,31.652,0,0,1-2.843-3.766,13.814,13.814,0,0,0,4.389-2.619c.878-.711,1.436-1.142,1.83-1.095.415.052,1.441.579,3.644,3.527,1.846,2.471,4.968,2.1,7.247,1.827,1.12-.134,2.653-.316,2.993.056.054.059.514.656-.043,3.262a5.515,5.515,0,0,0,1.8,5.889,3.2,3.2,0,0,1,1.151,3.483,31.31,31.31,0,0,1-9.862-2.806,1.509,1.509,0,1,0-1.287,2.73,34.4,34.4,0,0,0,14.784,3.3c.711,0,1.424-.025,2.135-.069a4.926,4.926,0,0,0-.824,2.67,5.15,5.15,0,0,0,5.159,5.245h.085a4.882,4.882,0,0,0,3.519-1.544L58.789,60.741l1.328,1.328A4.527,4.527,0,0,0,67.4,67.22l8.536-8.536a4.532,4.532,0,0,0,0-6.4ZM62.067,59.751,53.53,51.215l6.4-6.4,8.536,8.536Zm-3.2-18.139-8.536,8.536A1.509,1.509,0,0,1,48.2,48.014l8.536-8.536a1.509,1.509,0,0,1,2.134,2.134ZM34.088,66.392a6.042,6.042,0,0,0-2.05-5.832,2.628,2.628,0,0,1-.963-3.107c.612-2.865.4-4.748-.679-5.926-1.385-1.519-3.517-1.264-5.58-1.018-2.216.264-3.725.363-4.472-.637-2.344-3.137-3.992-4.5-5.687-4.716s-2.917.783-4.1,1.744a10.284,10.284,0,0,1-4.04,2.281A31.651,31.651,0,0,1,9.1,16.068a3.849,3.849,0,0,1,.924.425,4.09,4.09,0,0,1,.711,1.817c.289,1.327.726,3.333,4,3.687a4.982,4.982,0,0,1,3.385,2,6.726,6.726,0,0,1,1.277,5.02,8.794,8.794,0,0,0,3.16,8.961,6.165,6.165,0,0,0,3.66,1.166,7.551,7.551,0,0,0,4.109-1.271,6.485,6.485,0,0,0,3.108-6.711,5.685,5.685,0,0,1-.195-2.595c.072-.229.194-.349.646-.727.935-.78,2.347-1.96,2.765-5.612A4.129,4.129,0,0,1,39.912,19.7c2.224-.236,3.519,2.18,4.213,4.246a24.18,24.18,0,0,1,.8,3.352c.381,2.052.742,3.99,2.5,4.88,1.9.964,4.715.307,10.371-2.423,2.739-1.322,2.935-2.983,2.9-4.571A2.133,2.133,0,0,1,61,23.672a6.727,6.727,0,0,1,2.67-1.8A31.646,31.646,0,0,1,64.6,45.216l-2.72-2.72A4.527,4.527,0,0,0,54.6,37.344L46.061,45.88a4.527,4.527,0,0,0,5.151,7.285l1.328,1.328-12.188,11.4a31.763,31.763,0,0,1-5.646.509c-.207,0-.413,0-.619-.009Zm8.489,7.267a1.889,1.889,0,0,1-1.365.588h-.036a2.132,2.132,0,0,1-2.14-2.177,1.889,1.889,0,0,1,.588-1.365l10.641-9.951,2.264,2.264ZM54.591,60.812,52.47,58.691l2.206-2.063,1.978,1.978ZM73.8,56.55l-8.536,8.536a1.509,1.509,0,0,1-2.134-2.134l8.536-8.536A1.509,1.509,0,0,1,73.8,56.55Z" transform="translate(0 -0.005)"/>
        <path id="Trazado_978744" data-name="Trazado 978744" d="M89.265,395.84h0a1.509,1.509,0,1,0,1.51,1.509A1.509,1.509,0,0,0,89.263,395.84Z" transform="translate(-74.513 -336.109)"/>
        <path id="Trazado_978745" data-name="Trazado 978745" d="M360.676,52.628a1.509,1.509,0,0,0,0-3.018h0a1.509,1.509,0,0,0,0,3.018Z" transform="translate(-304.97 -42.125)"/>
      </g>
    </g>
  </g>
</svg>
