<svg xmlns="http://www.w3.org/2000/svg" xmlns:xlink="http://www.w3.org/1999/xlink" width="108" height="108" viewBox="0 0 108 108">
  <defs>
    <filter id="Trazado_978624" x="0" y="0" width="108" height="108" filterUnits="userSpaceOnUse">
      <feOffset dy="3" input="SourceAlpha"/>
      <feGaussianBlur stdDeviation="3" result="blur"/>
      <feFlood flood-opacity="0.161"/>
      <feComposite operator="in" in2="blur"/>
      <feComposite in="SourceGraphic"/>
    </filter>
  </defs>
  <g id="_5" data-name="5" transform="translate(-187 -1853)">
    <g transform="matrix(1, 0, 0, 1, 187, 1853)" filter="url(#Trazado_978624)">
      <g id="Trazado_978624-2" data-name="Trazado 978624" transform="translate(9 6)" fill="#f5e9a1">
        <path d="M 45 88.5 C 39.12687683105469 88.5 33.43022537231445 87.35007476806641 28.06830024719238 85.08217620849609 C 22.88852500915527 82.89131164550781 18.23629951477051 79.75458526611328 14.2408504486084 75.75914764404297 C 10.24541282653809 71.76370239257812 7.108687400817871 67.11147308349609 4.917825222015381 61.93170166015625 C 2.649924993515015 56.56977462768555 1.5 50.87312316894531 1.5 45 C 1.5 39.12687683105469 2.649924993515015 33.43022537231445 4.917825222015381 28.06830024719238 C 7.108687400817871 22.88852500915527 10.24541282653809 18.23629951477051 14.2408504486084 14.2408504486084 C 18.23629951477051 10.24541282653809 22.88852500915527 7.108687400817871 28.06830024719238 4.917825222015381 C 33.43022537231445 2.649924993515015 39.12687683105469 1.5 45 1.5 C 50.87312316894531 1.5 56.56977462768555 2.649924993515015 61.93170166015625 4.917825222015381 C 67.11147308349609 7.108687400817871 71.76370239257812 10.24541282653809 75.75914764404297 14.2408504486084 C 79.75458526611328 18.23629951477051 82.89131164550781 22.88852500915527 85.08217620849609 28.06830024719238 C 87.35007476806641 33.43022537231445 88.5 39.12687683105469 88.5 45 C 88.5 50.87312316894531 87.35007476806641 56.56977462768555 85.08217620849609 61.93170166015625 C 82.89131164550781 67.11147308349609 79.75458526611328 71.76370239257812 75.75914764404297 75.75914764404297 C 71.76370239257812 79.75458526611328 67.11147308349609 82.89131164550781 61.93170166015625 85.08217620849609 C 56.56977462768555 87.35007476806641 50.87312316894531 88.5 45 88.5 Z" stroke="none"/>
        <path d="M 45 3 C 39.32871246337891 3 33.82865524291992 4.110054016113281 28.65262985229492 6.299339294433594 C 23.65165710449219 8.414573669433594 19.15968322753906 11.44334411621094 15.301513671875 15.301513671875 C 11.44334411621094 19.15968322753906 8.414573669433594 23.65165710449219 6.299339294433594 28.65262985229492 C 4.110054016113281 33.82865524291992 3 39.32871246337891 3 45 C 3 50.67128753662109 4.110054016113281 56.17134475708008 6.299339294433594 61.34737396240234 C 8.414573669433594 66.34834289550781 11.44334411621094 70.84031677246094 15.301513671875 74.698486328125 C 19.15968322753906 78.55665588378906 23.65165710449219 81.58542633056641 28.65262985229492 83.70066070556641 C 33.82865524291992 85.88994598388672 39.32871246337891 87 45 87 C 50.67128753662109 87 56.17134475708008 85.88994598388672 61.34737396240234 83.70066070556641 C 66.34834289550781 81.58542633056641 70.84031677246094 78.55665588378906 74.698486328125 74.698486328125 C 78.55665588378906 70.84031677246094 81.58542633056641 66.34834289550781 83.70066070556641 61.34737396240234 C 85.88994598388672 56.17134475708008 87 50.67128753662109 87 45 C 87 39.32871246337891 85.88994598388672 33.82865524291992 83.70066070556641 28.65262985229492 C 81.58542633056641 23.65165710449219 78.55665588378906 19.15968322753906 74.698486328125 15.301513671875 C 70.84031677246094 11.44334411621094 66.34834289550781 8.414573669433594 61.34737396240234 6.299339294433594 C 56.17134475708008 4.110054016113281 50.67128753662109 3 45 3 M 45 0 C 69.85281372070312 0 90 20.14718627929688 90 45 C 90 69.85281372070312 69.85281372070312 90 45 90 C 20.14718627929688 90 0 69.85281372070312 0 45 C 0 20.14718627929688 20.14718627929688 0 45 0 Z" stroke="none" fill="#bcac89"/>
      </g>
    </g>
    <g id="justice-court_5863922_1_" data-name="justice-court_5863922 (1)" transform="translate(196.373 1859)">
      <g id="Grupo_1099741" data-name="Grupo 1099741" transform="translate(1.452 1.452)">
        <g id="Grupo_1099721" data-name="Grupo 1099721" transform="translate(29.032 5.806)">
          <path id="Trazado_875036" data-name="Trazado 875036" d="M50.032,13.71v5.806a2.912,2.912,0,0,0-2.9-2.9h-2.9v-1.1a4.7,4.7,0,0,0-4.7-4.7,4.757,4.757,0,0,0-2.09.494l-1.916.958L33.6,11.3a4.757,4.757,0,0,0-2.09-.494,4.708,4.708,0,0,0-4.7,4.7v1.1H23.9a2.924,2.924,0,0,0-2.9,2.9V13.71A8.717,8.717,0,0,1,29.71,5H41.323A8.717,8.717,0,0,1,50.032,13.71Z" transform="translate(-21 -5)" fill="#b27946"/>
        </g>
        <g id="Grupo_1099722" data-name="Grupo 1099722" transform="translate(37.742 0)">
          <path id="Trazado_875037" data-name="Trazado 875037" d="M38.613,6.806H27a5.806,5.806,0,0,1,11.613,0Z" transform="translate(-27 -1)" fill="#b27946"/>
        </g>
        <g id="Grupo_1099723" data-name="Grupo 1099723" transform="translate(0 37.742)">
          <path id="Trazado_875038" data-name="Trazado 875038" d="M18.419,28.452v2.9a1.456,1.456,0,0,1-1.452,1.452H2.452A1.456,1.456,0,0,1,1,31.355v-2.9A1.456,1.456,0,0,1,2.452,27H16.968A1.456,1.456,0,0,1,18.419,28.452Z" transform="translate(-1 -27)" fill="#cf9e76"/>
        </g>
        <g id="Grupo_1099724" data-name="Grupo 1099724" transform="translate(5.806)">
          <path id="Trazado_875039" data-name="Trazado 875039" d="M10.806,2.452v36.29H5V2.452A1.456,1.456,0,0,1,6.452,1h2.9A1.456,1.456,0,0,1,10.806,2.452Z" transform="translate(-5 -1)" fill="#dfb28b"/>
        </g>
        <g id="Grupo_1099725" data-name="Grupo 1099725" transform="translate(5.806 43.548)">
          <path id="Trazado_875040" data-name="Trazado 875040" d="M10.806,42.613v4.355a1.456,1.456,0,0,1-1.452,1.452h-2.9A1.456,1.456,0,0,1,5,46.968V31h5.806Z" transform="translate(-5 -31)" fill="#b27946"/>
        </g>
        <g id="Grupo_1099726" data-name="Grupo 1099726" transform="translate(42.648 58.253)">
          <path id="Trazado_875041" data-name="Trazado 875041" d="M38.2,41.13l4.021,11.061L30.38,45.6Z" transform="translate(-30.38 -41.13)" fill="#aab2bd"/>
        </g>
        <g id="Grupo_1099727" data-name="Grupo 1099727" transform="translate(32.981 55.161)">
          <path id="Trazado_875042" data-name="Trazado 875042" d="M40.094,39l1.118,3.092-7.824,4.471L23.72,52.094,28.481,39Z" transform="translate(-23.72 -39)" fill="#ccd1d9"/>
        </g>
        <g id="Grupo_1099728" data-name="Grupo 1099728" transform="translate(26.129 62.724)">
          <path id="Trazado_875043" data-name="Trazado 875043" d="M45.129,68.583H19l6.852-18.842,9.668-5.531L47.365,50.8l6.474,17.782Z" transform="translate(-19 -44.21)" fill="#e6e9ed"/>
        </g>
        <g id="Grupo_1099729" data-name="Grupo 1099729" transform="translate(34.839 43.548)">
          <path id="Trazado_875044" data-name="Trazado 875044" d="M42.332,33.86a3.649,3.649,0,0,1-.174,2.148l-2.642,6.6H27.9l-2.642-6.6a1.138,1.138,0,0,1-.073-.2A3.394,3.394,0,0,1,25,34.658,3.661,3.661,0,0,1,28.658,31h10.1a3.618,3.618,0,0,1,2.584,1.074A3.576,3.576,0,0,1,42.332,33.86Z" transform="translate(-25 -31)" fill="#e6e9ed"/>
        </g>
        <g id="Grupo_1099730" data-name="Grupo 1099730" transform="translate(75.484 49.355)">
          <path id="Trazado_875045" data-name="Trazado 875045" d="M53,35H64.613A5.806,5.806,0,1,1,53,35Z" transform="translate(-53 -35)" fill="#fcd770"/>
        </g>
        <g id="Grupo_1099731" data-name="Grupo 1099731" transform="translate(58.065 49.355)">
          <path id="Trazado_875046" data-name="Trazado 875046" d="M41,35H52.613A5.806,5.806,0,1,1,41,35Z" transform="translate(-41 -35)" fill="#fcd770"/>
        </g>
        <g id="Grupo_1099732" data-name="Grupo 1099732" transform="translate(69.677 5.806)">
          <path id="Trazado_875047" data-name="Trazado 875047" d="M54.806,16.613v1.452a1.456,1.456,0,0,1-1.452,1.452h-2.9A1.456,1.456,0,0,1,49,18.065V6.452A1.456,1.456,0,0,1,50.452,5h2.9a1.456,1.456,0,0,1,1.452,1.452V16.613Z" transform="translate(-49 -5)" fill="#969faa"/>
        </g>
        <g id="Grupo_1099733" data-name="Grupo 1099733" transform="translate(75.484 8.71)">
          <path id="Trazado_875048" data-name="Trazado 875048" d="M58.806,9.9V15.71a2.912,2.912,0,0,1-2.9,2.9,2.924,2.924,0,0,1-2.9-2.9V9.9A2.912,2.912,0,0,1,55.9,7a2.924,2.924,0,0,1,2.9,2.9Z" transform="translate(-53 -7)" fill="#f0d0b4"/>
        </g>
        <g id="Grupo_1099734" data-name="Grupo 1099734" transform="translate(47.903 11.613)">
          <path id="Trazado_875049" data-name="Trazado 875049" d="M58.677,29.323v5.806h-8.71L46.8,41.458A21.407,21.407,0,0,1,38.268,43.8a3.576,3.576,0,0,0-.987-1.785A3.618,3.618,0,0,0,34.7,40.935H34l1.452-5.806A14.521,14.521,0,0,0,49.968,20.613V11.9a2.912,2.912,0,0,1,2.9-2.9h2.9v7.258a1.456,1.456,0,0,0,1.452,1.452h1.452v5.806a2.9,2.9,0,0,0,0,5.806Z" transform="translate(-34 -9)" fill="#f0d0b4"/>
        </g>
        <g id="Grupo_1099735" data-name="Grupo 1099735" transform="translate(11.613 37.742)">
          <path id="Trazado_875050" data-name="Trazado 875050" d="M35.129,27l1.452,5.806h-.7a3.661,3.661,0,0,0-3.658,3.658,3.394,3.394,0,0,0,.189,1.147L15.242,43.737a11.515,11.515,0,0,1-3.9.682H9V32.806h4.355l2.9,2.9,11.061-6.634A14.477,14.477,0,0,1,34.8,27Z" transform="translate(-9 -27)" fill="#f0d0b4"/>
        </g>
        <g id="Grupo_1099736" data-name="Grupo 1099736" transform="translate(52.258 17.419)">
          <path id="Trazado_875051" data-name="Trazado 875051" d="M39.9,13a2.912,2.912,0,0,1,2.9,2.9,2.924,2.924,0,0,1-2.9,2.9H37V13Z" transform="translate(-37 -13)" fill="#f0d0b4"/>
        </g>
        <g id="Grupo_1099737" data-name="Grupo 1099737" transform="translate(34.839 23.226)">
          <path id="Trazado_875052" data-name="Trazado 875052" d="M42.419,17v2.729a7.661,7.661,0,0,1-5.806,7.432v4.355h2.9l-1.452,5.806h-8.71L27.9,31.516h2.9V27.161A7.669,7.669,0,0,1,25,19.729V17Z" transform="translate(-25 -17)" fill="#f0d0b4"/>
        </g>
        <g id="Grupo_1099738" data-name="Grupo 1099738" transform="translate(29.032 17.419)">
          <path id="Trazado_875053" data-name="Trazado 875053" d="M26.806,13v5.806H23.9A2.912,2.912,0,0,1,21,15.9,2.924,2.924,0,0,1,23.9,13Z" transform="translate(-21 -13)" fill="#f0d0b4"/>
        </g>
        <g id="Grupo_1099739" data-name="Grupo 1099739" transform="translate(34.839 11.613)">
          <path id="Trazado_875054" data-name="Trazado 875054" d="M33.71,10.452l1.916-.958A4.757,4.757,0,0,1,37.716,9a4.7,4.7,0,0,1,4.7,4.7v1.1H25V13.7A4.708,4.708,0,0,1,29.7,9a4.757,4.757,0,0,1,2.09.494Z" transform="translate(-25 -9)" fill="#f0d0b4"/>
        </g>
        <g id="Grupo_1099740" data-name="Grupo 1099740" transform="translate(34.839 17.419)">
          <path id="Trazado_875055" data-name="Trazado 875055" d="M25,13H42.419v5.806H25Z" transform="translate(-25 -13)" fill="#75b1f2"/>
        </g>
      </g>
      <path id="Trazado_875056" data-name="Trazado 875056" d="M83.639,37.742H75.484v-3.17a4.349,4.349,0,0,0,2.9-4.088h-2.9a1.452,1.452,0,1,1-1.452-1.452h1.452V23.226a2.878,2.878,0,0,0,1.922-.745,4.353,4.353,0,0,0,6.788-3.61V13.065A4.36,4.36,0,0,0,79.839,8.71a4.306,4.306,0,0,0-1.452.267V8.71a2.906,2.906,0,0,0-2.9-2.9h-2.9a2.906,2.906,0,0,0-2.9,2.9v2.9H68.226a4.36,4.36,0,0,0-4.355,4.355v8.71A13.08,13.08,0,0,1,50.806,37.742H49.355V35.9a9.1,9.1,0,0,0,5.806-8.5V26.129h1.452a4.36,4.36,0,0,0,4.355-4.355V15.968A10.171,10.171,0,0,0,52.122,5.9a7.248,7.248,0,0,0-14.243,0,10.171,10.171,0,0,0-8.846,10.067v5.806a4.36,4.36,0,0,0,4.355,4.355h1.452V27.4a9.105,9.105,0,0,0,5.806,8.5v1.844H38.86a15.963,15.963,0,0,0-8.215,2.276l-10.1,6.058-.8-.8a2.89,2.89,0,0,0,.578-1.723v-2.9a2.906,2.906,0,0,0-2.9-2.9h-2.9V2.9a2.906,2.906,0,0,0-2.9-2.9H8.71a2.906,2.906,0,0,0-2.9,2.9V37.742H2.9a2.906,2.906,0,0,0-2.9,2.9v2.9a2.906,2.906,0,0,0,2.9,2.9h2.9V60.968a2.906,2.906,0,0,0,2.9,2.9h2.9a2.906,2.906,0,0,0,2.9-2.9v-2.9h.891A13.042,13.042,0,0,0,19.8,57.3l15.841-5.657,2,4.992L25.508,90H64.491L52.36,56.638,54.8,50.544a5.02,5.02,0,0,0,.316-1.392,22.924,22.924,0,0,0,4.04-.865l-1.089,2.177v.343a7.258,7.258,0,0,0,14.516,0v-.343l-4.909-9.819H80.393l-4.909,9.819v.343a7.258,7.258,0,0,0,14.516,0v-.343Zm-3.8-26.129a1.453,1.453,0,0,1,1.452,1.452v5.806a1.452,1.452,0,0,1-2.9,0V13.065A1.453,1.453,0,0,1,79.839,11.613Zm-7.258-2.9h2.9V18.871s0,.009,0,.012v1.44h-2.9ZM52.1,49.468l-2.278,5.693H40.176L37.9,49.471a2.2,2.2,0,0,1,2.044-3.019H50.059A2.2,2.2,0,0,1,52.1,49.468Zm4.512-26.242H55.161v-2.9h1.452a1.452,1.452,0,1,1,0,2.9Zm-4.355-2.9v2.9H37.742v-2.9Zm-14.481-2.9a3.239,3.239,0,0,1,3.211-2.9,3.273,3.273,0,0,1,1.452.343L45,16.139l2.561-1.28a3.231,3.231,0,0,1,4.663,2.561ZM45,2.9a4.349,4.349,0,0,1,4.088,2.9H40.914A4.346,4.346,0,0,1,45,2.9ZM39.194,8.71H50.806a7.266,7.266,0,0,1,7.258,7.258v1.719a4.306,4.306,0,0,0-1.452-.267H55.126a6.129,6.129,0,0,0-8.865-5.158L45,12.893l-1.261-.631a6.129,6.129,0,0,0-8.865,5.158H33.387a4.306,4.306,0,0,0-1.452.267V15.968A7.266,7.266,0,0,1,39.194,8.71ZM33.387,23.226a1.452,1.452,0,0,1,0-2.9h1.452v2.9ZM37.742,27.4V26.129H52.258V27.4a6.205,6.205,0,0,1-4.706,6.029l-1.1.274v6.94h2.5l-.726,2.9H41.777l-.726-2.9h2.5v-6.94l-1.1-.274A6.205,6.205,0,0,1,37.742,27.4ZM8.71,2.9h2.9V37.742H8.71ZM2.9,40.645H17.419v2.9H2.9ZM8.71,60.968V46.452h2.9V60.968ZM34.839,48.652c0,.065.016.128.019.193L18.825,54.57a10.144,10.144,0,0,1-3.417.591h-.891v-8.71h2.3L20.1,49.731l12.041-7.225A13.036,13.036,0,0,1,38.074,40.7l.746,2.983A5.11,5.11,0,0,0,34.839,48.652Zm5.371,9.412H49.79l.359.986-13,7.428Zm10.945,3.754,2.1,5.788-6.2-3.446ZM54.874,87.1,52.223,75.169l-2.835.63L51.9,87.1H46.452V72.581h-2.9V87.1H38.1l2.511-11.3-2.835-.63L35.126,87.1H29.654l5.963-16.4,8.495-4.854,10.662,5.924L60.346,87.1ZM65.323,55.161a4.347,4.347,0,0,1-4.086-2.9h8.173A4.347,4.347,0,0,1,65.323,55.161Zm3.458-5.806H61.865l3.458-6.915ZM64.425,37.742l-3.339,6.677A20.1,20.1,0,0,1,54.559,46.3a5.1,5.1,0,0,0-3.378-2.614l.774-3.095a15.976,15.976,0,0,0,14.82-15.91v-8.71a1.453,1.453,0,0,1,1.452-1.452h1.452v5.806a2.906,2.906,0,0,0,2.9,2.9v3.151a4.343,4.343,0,0,0,0,8.194v3.17Zm18.316,4.7L86.2,49.355H79.284Zm0,12.722a4.347,4.347,0,0,1-4.086-2.9h8.173a4.347,4.347,0,0,1-4.086,2.9Z"/>
    </g>
  </g>
</svg>
