<svg xmlns="http://www.w3.org/2000/svg" xmlns:xlink="http://www.w3.org/1999/xlink" width="108" height="108" viewBox="0 0 108 108">
  <defs>
    <filter id="Trazado_978624" x="0" y="0" width="108" height="108" filterUnits="userSpaceOnUse">
      <feOffset dy="3" input="SourceAlpha"/>
      <feGaussianBlur stdDeviation="3" result="blur"/>
      <feFlood flood-opacity="0.161"/>
      <feComposite operator="in" in2="blur"/>
      <feComposite in="SourceGraphic"/>
    </filter>
  </defs>
  <g id="_8" data-name="8" transform="translate(-197 -1430)">
    <g id="Grupo_1144123" data-name="Grupo 1144123" transform="translate(206 1436)">
      <g transform="matrix(1, 0, 0, 1, -9, -6)" filter="url(#Trazado_978624)">
        <g id="Trazado_978624-2" data-name="Trazado 978624" transform="translate(9 6)" fill="#f5e9a1">
          <path d="M 45 88.5 C 39.12687683105469 88.5 33.43022537231445 87.35007476806641 28.06830024719238 85.08217620849609 C 22.88852500915527 82.89131164550781 18.23629951477051 79.75458526611328 14.2408504486084 75.75914764404297 C 10.24541282653809 71.76370239257812 7.108687400817871 67.11147308349609 4.917825222015381 61.93170166015625 C 2.649924993515015 56.56977462768555 1.5 50.87312316894531 1.5 45 C 1.5 39.12687683105469 2.649924993515015 33.43022537231445 4.917825222015381 28.06830024719238 C 7.108687400817871 22.88852500915527 10.24541282653809 18.23629951477051 14.2408504486084 14.2408504486084 C 18.23629951477051 10.24541282653809 22.88852500915527 7.108687400817871 28.06830024719238 4.917825222015381 C 33.43022537231445 2.649924993515015 39.12687683105469 1.5 45 1.5 C 50.87312316894531 1.5 56.56977462768555 2.649924993515015 61.93170166015625 4.917825222015381 C 67.11147308349609 7.108687400817871 71.76370239257812 10.24541282653809 75.75914764404297 14.2408504486084 C 79.75458526611328 18.23629951477051 82.89131164550781 22.88852500915527 85.08217620849609 28.06830024719238 C 87.35007476806641 33.43022537231445 88.5 39.12687683105469 88.5 45 C 88.5 50.87312316894531 87.35007476806641 56.56977462768555 85.08217620849609 61.93170166015625 C 82.89131164550781 67.11147308349609 79.75458526611328 71.76370239257812 75.75914764404297 75.75914764404297 C 71.76370239257812 79.75458526611328 67.11147308349609 82.89131164550781 61.93170166015625 85.08217620849609 C 56.56977462768555 87.35007476806641 50.87312316894531 88.5 45 88.5 Z" stroke="none"/>
          <path d="M 45 3 C 39.32871246337891 3 33.82865524291992 4.110054016113281 28.65262985229492 6.299339294433594 C 23.65165710449219 8.414573669433594 19.15968322753906 11.44334411621094 15.301513671875 15.301513671875 C 11.44334411621094 19.15968322753906 8.414573669433594 23.65165710449219 6.299339294433594 28.65262985229492 C 4.110054016113281 33.82865524291992 3 39.32871246337891 3 45 C 3 50.67128753662109 4.110054016113281 56.17134475708008 6.299339294433594 61.34737396240234 C 8.414573669433594 66.34834289550781 11.44334411621094 70.84031677246094 15.301513671875 74.698486328125 C 19.15968322753906 78.55665588378906 23.65165710449219 81.58542633056641 28.65262985229492 83.70066070556641 C 33.82865524291992 85.88994598388672 39.32871246337891 87 45 87 C 50.67128753662109 87 56.17134475708008 85.88994598388672 61.34737396240234 83.70066070556641 C 66.34834289550781 81.58542633056641 70.84031677246094 78.55665588378906 74.698486328125 74.698486328125 C 78.55665588378906 70.84031677246094 81.58542633056641 66.34834289550781 83.70066070556641 61.34737396240234 C 85.88994598388672 56.17134475708008 87 50.67128753662109 87 45 C 87 39.32871246337891 85.88994598388672 33.82865524291992 83.70066070556641 28.65262985229492 C 81.58542633056641 23.65165710449219 78.55665588378906 19.15968322753906 74.698486328125 15.301513671875 C 70.84031677246094 11.44334411621094 66.34834289550781 8.414573669433594 61.34737396240234 6.299339294433594 C 56.17134475708008 4.110054016113281 50.67128753662109 3 45 3 M 45 0 C 69.85281372070312 0 90 20.14718627929688 90 45 C 90 69.85281372070312 69.85281372070312 90 45 90 C 20.14718627929688 90 0 69.85281372070312 0 45 C 0 20.14718627929688 20.14718627929688 0 45 0 Z" stroke="none" fill="#bcac89"/>
        </g>
      </g>
    </g>
    <g id="justice_3292568" transform="translate(212.939 1442.939)">
      <path id="Trazado_978713" data-name="Trazado 978713" d="M436.19,294.5l-6.69,6.69h4.46a6.69,6.69,0,0,0,6.69-6.69Z" transform="translate(-365.644 -250.715)" fill="#ffbb6e"/>
      <path id="Trazado_978714" data-name="Trazado 978714" d="M339.565,294.5H316a6.69,6.69,0,0,0,6.69,6.69h10.184A6.69,6.69,0,0,0,339.565,294.5Z" transform="translate(-269.019 -250.715)" fill="#ffd478"/>
      <path id="Trazado_978715" data-name="Trazado 978715" d="M127.69,294.5,121,301.19h4.46a6.69,6.69,0,0,0,6.69-6.69Z" transform="translate(-103.01 -250.715)" fill="#ffbb6e"/>
      <path id="Trazado_978716" data-name="Trazado 978716" d="M31.065,294.5H7.5a6.69,6.69,0,0,0,6.69,6.69H24.375A6.69,6.69,0,0,0,31.065,294.5Z" transform="translate(-6.385 -250.715)" fill="#ffd478"/>
      <path id="Trazado_978717" data-name="Trazado 978717" d="M301,384.5h6.69v11.151H301Z" transform="translate(-256.249 -327.335)" fill="#ff8053"/>
      <path id="Trazado_978718" data-name="Trazado 978718" d="M166,384.5h22.3v11.151H166Z" transform="translate(-141.32 -327.335)" fill="#ffa061"/>
      <path id="Trazado_978719" data-name="Trazado 978719" d="M103.946,429.5H63.44l-3.223,4.835a4.167,4.167,0,0,1-3.467,1.856v2.23h56.566Z" transform="translate(-48.313 -365.644)" fill="#ffd478"/>
      <path id="Trazado_978720" data-name="Trazado 978720" d="M382.779,434.335l-3.223-4.835H374.2l3.223,4.835a4.167,4.167,0,0,0,3.467,1.856l2.68,2.23,2.68-2.23A4.167,4.167,0,0,1,382.779,434.335Z" transform="translate(-318.562 -365.644)" fill="#ffbb6e"/>
      <path id="Trazado_978721" data-name="Trazado 978721" d="M241,67.5h6.69V78.651H241Z" transform="translate(-205.169 -57.464)" fill="#ff8053"/>
      <path id="Trazado_978722" data-name="Trazado 978722" d="M226,67.5h4.46V78.651H226Z" transform="translate(-192.4 -57.464)" fill="#ffa061"/>
      <path id="Trazado_978723" data-name="Trazado 978723" d="M241,142.5h6.69v35.979H241Z" transform="translate(-205.169 -121.314)" fill="#ffe7ad"/>
      <path id="Trazado_978724" data-name="Trazado 978724" d="M226,142.5h4.46v35.979H226Z" transform="translate(-192.4 -121.314)" fill="#fff5de"/>
      <path id="Trazado_978725" data-name="Trazado 978725" d="M260.46,127.5H256v4.46h4.46a2.23,2.23,0,0,0,0-4.46Z" transform="translate(-217.939 -108.544)" fill="#ffbb6e"/>
      <path id="Trazado_978726" data-name="Trazado 978726" d="M219.92,129.73a2.23,2.23,0,0,0-2.23-2.23h-4.46a2.23,2.23,0,0,0,0,4.46h4.46A2.23,2.23,0,0,0,219.92,129.73Z" transform="translate(-179.63 -108.544)" fill="#ffd478"/>
      <path id="Trazado_978727" data-name="Trazado 978727" d="M320.46,369.5H316v4.46h4.46a2.23,2.23,0,0,0,0-4.46Z" transform="translate(-269.019 -314.565)" fill="#ffbb6e"/>
      <path id="Trazado_978728" data-name="Trazado 978728" d="M177.761,371.73a2.23,2.23,0,0,0-2.23-2.23h-22.3a2.23,2.23,0,0,0,0,4.46h22.3A2.23,2.23,0,0,0,177.761,371.73Z" transform="translate(-128.55 -314.565)" fill="#ffd478"/>
      <path id="Trazado_978729" data-name="Trazado 978729" d="M384.71,37.5h-4.46v4.46h4.46a2.23,2.23,0,1,0,0-4.46Z" transform="translate(-323.717 -31.925)" fill="#ffbb6e"/>
      <path id="Trazado_978730" data-name="Trazado 978730" d="M132.616,39.73a2.23,2.23,0,0,0-2.23-2.23H88.98a2.23,2.23,0,1,0,0,4.46h41.406A2.23,2.23,0,0,0,132.616,39.73Z" transform="translate(-73.853 -31.925)" fill="#ffd478"/>
      <path id="Trazado_978731" data-name="Trazado 978731" d="M429.71,474.5h-4.46l4.46,4.46h4.46A4.46,4.46,0,0,0,429.71,474.5Z" transform="translate(-362.026 -403.954)" fill="#ffd478"/>
      <path id="Trazado_978732" data-name="Trazado 978732" d="M86,474.5H31.21a4.46,4.46,0,0,0-4.46,4.46H90.457A4.46,4.46,0,0,0,86,474.5Z" transform="translate(-22.773 -403.954)" fill="#ffe7ad"/>
      <circle id="Elipse_11622" data-name="Elipse 11622" cx="6.69" cy="6.69" r="6.69" transform="translate(31.37 1.115)" fill="#ffe7ad"/>
      <circle id="Elipse_11623" data-name="Elipse 11623" cx="2.23" cy="2.23" r="2.23" transform="translate(35.831 5.575)" fill="#ffd478"/>
      <circle id="Elipse_11624" data-name="Elipse 11624" cx="2.23" cy="2.23" r="2.23" transform="translate(12.898 10.036)" fill="#ffe7ad"/>
      <circle id="Elipse_11625" data-name="Elipse 11625" cx="2.23" cy="2.23" r="2.23" transform="translate(58.764 10.036)" fill="#ffe7ad"/>
      <path id="Trazado_978733" data-name="Trazado 978733" d="M45.866,43.785a7.814,7.814,0,0,0,7.805,7.805H68.316a7.814,7.814,0,0,0,7.805-7.805,1.117,1.117,0,0,0-.109-.481L62.573,15.213a3.341,3.341,0,0,0,.911-5.178A3.343,3.343,0,0,0,60.994,4.46H45.111a7.8,7.8,0,0,0-14.1,0H15.128a3.343,3.343,0,0,0-2.491,5.575,3.341,3.341,0,0,0,.911,5.178L.109,43.3A1.116,1.116,0,0,0,0,43.785,7.814,7.814,0,0,0,7.805,51.59H22.45a7.814,7.814,0,0,0,7.805-7.805,1.117,1.117,0,0,0-.109-.481L16.707,15.213a3.342,3.342,0,0,0,1.574-4.063H31.01a7.836,7.836,0,0,0,1.475,2.11v4.772a3.344,3.344,0,0,0,0,6.307V53.82H24.68a3.345,3.345,0,0,0-1.115,6.5v2.421H15.128a1.115,1.115,0,0,0-.928.5l-3.223,4.835a3.046,3.046,0,0,1-2.539,1.359,5.582,5.582,0,0,0-5.575,5.575,1.115,1.115,0,0,0,1.115,1.115H72.144a1.115,1.115,0,0,0,1.115-1.115,5.582,5.582,0,0,0-5.575-5.575,3.046,3.046,0,0,1-2.539-1.359l-3.223-4.835a1.115,1.115,0,0,0-.928-.5H52.556V60.319a3.345,3.345,0,0,0-1.115-6.5H43.636V24.339a3.344,3.344,0,0,0,0-6.307V13.261a7.84,7.84,0,0,0,1.475-2.11H57.84a3.342,3.342,0,0,0,1.574,4.063L45.975,43.3a1.115,1.115,0,0,0-.109.481Zm22.45,5.575H53.671a5.584,5.584,0,0,1-5.462-4.46H73.778A5.584,5.584,0,0,1,68.316,49.36ZM48.751,42.67l12.243-25.59L73.237,42.67ZM15.128,17.079,27.371,42.67H2.885ZM22.45,49.36H7.805A5.584,5.584,0,0,1,2.343,44.9H27.912A5.584,5.584,0,0,1,22.45,49.36ZM16.243,12.266a1.115,1.115,0,1,1-1.115-1.115A1.116,1.116,0,0,1,16.243,12.266ZM15.128,8.92a1.115,1.115,0,1,1,0-2.23H30.336a7.727,7.727,0,0,0,0,2.23Zm19.588,8.92V14.856a7.791,7.791,0,0,0,6.69,0v2.985Zm36.123,56.05H5.283a3.351,3.351,0,0,1,3.154-2.23H67.684A3.351,3.351,0,0,1,70.838,73.891Zm-7.549-4.582c.028.042.058.081.087.122H12.745c.029-.041.059-.08.087-.122l2.892-4.338H60.4ZM52.556,57.165a1.116,1.116,0,0,1-1.115,1.115H29.14a1.115,1.115,0,1,0,0,2.23H50.326v2.23H25.795V59.4A1.115,1.115,0,0,0,24.68,58.28a1.115,1.115,0,1,1,0-2.23H51.441A1.116,1.116,0,0,1,52.556,57.165ZM34.715,53.82V24.531h6.69V53.82ZM42.521,22.3H33.6a1.115,1.115,0,1,1,0-2.23h8.92a1.115,1.115,0,0,1,0,2.23Zm-4.46-8.92a5.575,5.575,0,1,1,5.575-5.575A5.582,5.582,0,0,1,38.061,13.381Zm7.725-6.69H60.994a1.115,1.115,0,0,1,0,2.23H45.785a7.727,7.727,0,0,0,0-2.23Zm16.324,5.575a1.115,1.115,0,1,1-1.115-1.115A1.116,1.116,0,0,1,62.109,12.266Z"/>
      <path id="Trazado_978734" data-name="Trazado 978734" d="M236.845,30a3.345,3.345,0,1,0,3.345,3.345A3.349,3.349,0,0,0,236.845,30Zm0,4.46a1.115,1.115,0,1,1,1.115-1.115A1.116,1.116,0,0,1,236.845,34.46Z" transform="translate(-198.785 -25.54)"/>
    </g>
  </g>
</svg>
