<svg xmlns="http://www.w3.org/2000/svg" xmlns:xlink="http://www.w3.org/1999/xlink" width="101.003" height="101.003" viewBox="0 0 101.003 101.003">
  <defs>
    <filter id="Trazado_904820" x="0" y="0" width="101.003" height="101.003" filterUnits="userSpaceOnUse">
      <feOffset dy="3" input="SourceAlpha"/>
      <feGaussianBlur stdDeviation="3" result="blur"/>
      <feFlood flood-opacity="0.161"/>
      <feComposite operator="in" in2="blur"/>
      <feComposite in="SourceGraphic"/>
    </filter>
  </defs>
  <g id="_1" data-name="1" transform="translate(-454 -643)">
    <g id="Icono" transform="translate(463 649)">
      <g transform="matrix(1, 0, 0, 1, -9, -6)" filter="url(#Trazado_904820)">
        <g id="Trazado_904820-2" data-name="Trazado 904820" transform="translate(9 6)" fill="#dbe7fc">
          <path d="M 41.50173950195312 81.50347900390625 C 36.10087966918945 81.50347900390625 30.86236381530762 80.446044921875 25.93171691894531 78.36056518554688 C 21.16851615905762 76.34590148925781 16.89040946960449 73.46141815185547 13.216233253479 69.78724670410156 C 9.542068481445312 66.11306762695312 6.657586574554443 61.83496475219727 4.642916202545166 57.07176208496094 C 2.557433605194092 52.14111709594727 1.499998331069946 46.9025993347168 1.499998331069946 41.50173950195312 C 1.499998331069946 36.10087966918945 2.557433605194092 30.86236381530762 4.642916202545166 25.93171691894531 C 6.657586574554443 21.16851615905762 9.542068481445312 16.89040946960449 13.216233253479 13.216233253479 C 16.89040946960449 9.542068481445312 21.16851615905762 6.657586574554443 25.93171691894531 4.642916202545166 C 30.86236381530762 2.557433605194092 36.10087966918945 1.499998331069946 41.50173950195312 1.499998331069946 C 46.9025993347168 1.499998331069946 52.14111709594727 2.557433605194092 57.07176208496094 4.642916202545166 C 61.83496475219727 6.657586574554443 66.11306762695312 9.542068481445312 69.78724670410156 13.216233253479 C 73.46141815185547 16.89040946960449 76.34590148925781 21.16851615905762 78.36056518554688 25.93171691894531 C 80.446044921875 30.86236381530762 81.50347900390625 36.10087966918945 81.50347900390625 41.50173950195312 C 81.50347900390625 46.9025993347168 80.446044921875 52.14111709594727 78.36056518554688 57.07176208496094 C 76.34590148925781 61.83496475219727 73.46141815185547 66.11306762695312 69.78724670410156 69.78724670410156 C 66.11306762695312 73.46141815185547 61.83496475219727 76.34590148925781 57.07176208496094 78.36056518554688 C 52.14111709594727 80.446044921875 46.9025993347168 81.50347900390625 41.50173950195312 81.50347900390625 Z" stroke="none"/>
          <path d="M 41.50173950195312 2.999992370605469 C 36.30271148681641 2.999992370605469 31.26080703735352 4.017555236816406 26.51604461669922 6.024421691894531 C 21.93164443969727 7.963462829589844 17.81378936767578 10.739990234375 14.27690124511719 14.27690124511719 C 10.739990234375 17.81378936767578 7.963462829589844 21.93164443969727 6.024421691894531 26.51604461669922 C 4.017555236816406 31.26080703735352 2.999992370605469 36.30271148681641 2.999992370605469 41.50173950195312 C 2.999992370605469 46.70076751708984 4.017555236816406 51.74268341064453 6.024421691894531 56.48743438720703 C 7.963462829589844 61.07183074951172 10.739990234375 65.18968200683594 14.27690124511719 68.72657775878906 C 17.81378936767578 72.26348876953125 21.93164443969727 75.04000854492188 26.51604461669922 76.97904968261719 C 31.26080703735352 78.98591613769531 36.30271148681641 80.00347137451172 41.50173950195312 80.00347137451172 C 46.70076751708984 80.00347137451172 51.74268341064453 78.98591613769531 56.48743438720703 76.97904968261719 C 61.07183074951172 75.04000854492188 65.18968200683594 72.26348876953125 68.72657775878906 68.72657775878906 C 72.26348876953125 65.18968200683594 75.04000854492188 61.07183074951172 76.97904968261719 56.48743438720703 C 78.98591613769531 51.74268341064453 80.00347137451172 46.70076751708984 80.00347137451172 41.50173950195312 C 80.00347137451172 36.30271148681641 78.98591613769531 31.26080703735352 76.97904968261719 26.51604461669922 C 75.04000854492188 21.93164443969727 72.26348876953125 17.81378936767578 68.72657775878906 14.27690124511719 C 65.18968200683594 10.739990234375 61.07183074951172 7.963462829589844 56.48743438720703 6.024421691894531 C 51.74268341064453 4.017555236816406 46.70076751708984 2.999992370605469 41.50173950195312 2.999992370605469 M 41.50173950195312 -7.62939453125e-06 C 64.42252349853516 -7.62939453125e-06 83.00347137451172 18.58096313476562 83.00347137451172 41.50173950195312 C 83.00347137451172 64.42252349853516 64.42252349853516 83.00347137451172 41.50173950195312 83.00347137451172 C 18.58096313476562 83.00347137451172 -7.62939453125e-06 64.42252349853516 -7.62939453125e-06 41.50173950195312 C -7.62939453125e-06 18.58096313476562 18.58096313476562 -7.62939453125e-06 41.50173950195312 -7.62939453125e-06 Z" stroke="none" fill="#0d5d91"/>
        </g>
      </g>
    </g>
    <g id="compliant_4252360" transform="translate(467.531 654.885)">
      <g id="Grupo_1144148" data-name="Grupo 1144148" transform="translate(14.085 1.043)">
        <path id="Trazado_978678" data-name="Trazado 978678" d="M161.316,7.5H117.011a.7.7,0,0,0-.7.7V27.482h4.562a3.409,3.409,0,0,1,.238,6.81v4.23h0a1.39,1.39,0,0,1,1.18,1.373v8.636a1.39,1.39,0,0,1-1.18,1.373h0v4.23a3.409,3.409,0,0,1-.238,6.81h-4.562v5.709h9.6a1.391,1.391,0,0,1,1.391,1.391v2.768s0,0,0,0h1.06a1.391,1.391,0,0,1,1.391,1.391v4.437h32.253V8.2A.7.7,0,0,0,161.316,7.5Z" transform="translate(-116.315 -7.5)" fill="#fff3de"/>
      </g>
      <g id="Grupo_1144149" data-name="Grupo 1144149" transform="translate(14.085 1.043)">
        <path id="Trazado_978679" data-name="Trazado 978679" d="M120.877,27.482c.042,0,.083,0,.124,0V8.2a.7.7,0,0,1,.7-.7h-4.686a.7.7,0,0,0-.7.7V27.482Z" transform="translate(-116.315 -7.5)" fill="#ffe5c2"/>
        <path id="Trazado_978680" data-name="Trazado 978680" d="M120.877,391.63h-4.562v5.709H121v-5.712C120.96,391.628,120.919,391.63,120.877,391.63Z" transform="translate(-116.315 -338.185)" fill="#ffe5c2"/>
      </g>
      <g id="Grupo_1144167" data-name="Grupo 1144167" transform="translate(1.043 21.026)">
        <g id="Grupo_1144150" data-name="Grupo 1144150" transform="translate(19.021 14.353)">
          <path id="Trazado_978681" data-name="Trazado 978681" d="M159.3,254.29h6.44v4.758H159.3Z" transform="translate(-159.296 -254.29)" fill="#883f2e"/>
          <path id="Trazado_978682" data-name="Trazado 978682" d="M237.5,254.29h9.2v4.758h-9.2Z" transform="translate(-226.621 -254.29)" fill="#883f2e"/>
        </g>
        <g id="Grupo_1144151" data-name="Grupo 1144151" transform="translate(19.021 16.817)">
          <path id="Trazado_978683" data-name="Trazado 978683" d="M159.3,272h6.44v2.294H159.3Z" transform="translate(-159.296 -272)" fill="#6d3326"/>
          <path id="Trazado_978684" data-name="Trazado 978684" d="M237.5,272h9.2v2.294h-9.2Z" transform="translate(-226.621 -272)" fill="#6d3326"/>
        </g>
        <g id="Grupo_1144152" data-name="Grupo 1144152" transform="translate(39.1 13.242)">
          <path id="Trazado_978685" data-name="Trazado 978685" d="M329.467,249.8a3.489,3.489,0,0,1-3.489,3.489H304.409a.793.793,0,0,1-.793-.793V247.1a.793.793,0,0,1,.793-.793h21.569A3.489,3.489,0,0,1,329.467,249.8Z" transform="translate(-303.616 -246.31)" fill="#ca6e59"/>
        </g>
        <g id="Grupo_1144153" data-name="Grupo 1144153" transform="translate(39.1 13.242)">
          <path id="Trazado_978686" data-name="Trazado 978686" d="M308.358,250.3a.793.793,0,0,1-.793-.793v-3.2h-3.156a.793.793,0,0,0-.793.793V252.5a.793.793,0,0,0,.793.793h21.569a3.489,3.489,0,0,0,3.452-2.987Z" transform="translate(-303.616 -246.31)" fill="#bb5d4c"/>
        </g>
        <g id="Grupo_1144154" data-name="Grupo 1144154" transform="translate(25.461 13.242)">
          <path id="Trazado_978687" data-name="Trazado 978687" d="M210.026,247.007v5.587a.7.7,0,0,1-.7.7h-3.049a.7.7,0,0,1-.7-.7v-5.587a.7.7,0,0,1,.7-.7h3.049A.7.7,0,0,1,210.026,247.007Z" transform="translate(-205.585 -246.311)" fill="#ca6e59"/>
        </g>
        <g id="Grupo_1144155" data-name="Grupo 1144155" transform="translate(25.461 13.242)">
          <path id="Trazado_978688" data-name="Trazado 978688" d="M207.6,252.593v-5.587a.7.7,0,0,1,.7-.7h-2.017a.7.7,0,0,0-.7.7v5.587a.7.7,0,0,0,.7.7H208.3A.7.7,0,0,1,207.6,252.593Z" transform="translate(-205.585 -246.311)" fill="#bb5d4c"/>
        </g>
        <g id="Grupo_1144156" data-name="Grupo 1144156" transform="translate(8.643 6.81)">
          <path id="Trazado_978689" data-name="Trazado 978689" d="M93.69,312.315H84.915a1.4,1.4,0,0,1-.212-.018v4.23c.079-.005.158-.009.238-.009h8.723c.08,0,.159,0,.238.009V312.3A1.381,1.381,0,0,1,93.69,312.315Z" transform="translate(-84.703 -296.684)" fill="#883f2e"/>
          <path id="Trazado_978690" data-name="Trazado 978690" d="M84.915,312.315a1.4,1.4,0,0,1-.212-.018v4.23c.079-.005.158-.009.238-.009h3.266v-4.2H84.915Z" transform="translate(-84.703 -296.684)" fill="#6d3326"/>
          <path id="Trazado_978691" data-name="Trazado 978691" d="M84.915,204.291H93.69a1.4,1.4,0,0,1,.212.018v-4.23c-.079.005-.158.009-.238.009H84.941c-.08,0-.159,0-.238-.009v4.23A1.4,1.4,0,0,1,84.915,204.291Z" transform="translate(-84.703 -200.079)" fill="#883f2e"/>
          <path id="Trazado_978692" data-name="Trazado 978692" d="M84.915,204.29h3.292v-4.2H84.941c-.08,0-.159,0-.238-.009v4.23A1.418,1.418,0,0,1,84.915,204.29Z" transform="translate(-84.703 -200.078)" fill="#6d3326"/>
        </g>
        <g id="Grupo_1144157" data-name="Grupo 1144157" transform="translate(7.464 11.022)">
          <path id="Trazado_978693" data-name="Trazado 978693" d="M87.782,231.743v8.636a1.391,1.391,0,0,1-1.391,1.391H77.616a1.391,1.391,0,0,1-1.391-1.391v-8.636a1.391,1.391,0,0,1,1.391-1.391h8.775A1.391,1.391,0,0,1,87.782,231.743Z" transform="translate(-76.225 -230.352)" fill="#ca6e59"/>
        </g>
        <g id="Grupo_1144158" data-name="Grupo 1144158" transform="translate(7.464 11.022)">
          <path id="Trazado_978694" data-name="Trazado 978694" d="M80.924,240.379v-8.636a1.391,1.391,0,0,1,1.391-1.391h-4.7a1.391,1.391,0,0,0-1.391,1.391v8.636a1.391,1.391,0,0,0,1.391,1.391h4.7A1.391,1.391,0,0,1,80.924,240.379Z" transform="translate(-76.225 -230.352)" fill="#bb5d4c"/>
        </g>
        <g id="Grupo_1144161" data-name="Grupo 1144161" transform="translate(0 39.172)">
          <path id="Trazado_978695" data-name="Trazado 978695" d="M61.77,436.987a1.42,1.42,0,0,0,.007-.143v-2.768a1.391,1.391,0,0,0-1.391-1.391h-18.8a1.391,1.391,0,0,0-1.391,1.391v2.768a1.422,1.422,0,0,0,.007.143Z" transform="translate(-37.744 -432.685)" fill="#ca6e59"/>
          <path id="Trazado_978696" data-name="Trazado 978696" d="M44.905,436.987a1.42,1.42,0,0,1-.007-.143v-2.768a1.391,1.391,0,0,1,1.391-1.391h-4.7a1.391,1.391,0,0,0-1.391,1.391v2.768a1.423,1.423,0,0,0,.007.143Z" transform="translate(-37.744 -432.685)" fill="#bb5d4c"/>
          <g id="Grupo_1144159" data-name="Grupo 1144159" transform="translate(0 4.163)">
            <path id="Trazado_978697" data-name="Trazado 978697" d="M49.063,468.436H23.274a.7.7,0,0,1-.7-.7V464a1.391,1.391,0,0,1,1.391-1.391h23.7A1.391,1.391,0,0,1,49.063,464Z" transform="translate(-22.578 -462.608)" fill="#883f2e"/>
          </g>
          <g id="Grupo_1144160" data-name="Grupo 1144160" transform="translate(0 4.163)">
            <path id="Trazado_978698" data-name="Trazado 978698" d="M27.228,467.741V464a1.391,1.391,0,0,1,1.391-1.391h-4.65A1.391,1.391,0,0,0,22.578,464v3.741a.7.7,0,0,0,.7.7h4.65A.7.7,0,0,1,27.228,467.741Z" transform="translate(-22.578 -462.608)" fill="#6d3326"/>
          </g>
        </g>
        <g id="Grupo_1144166" data-name="Grupo 1144166" transform="translate(5.471)">
          <g id="Grupo_1144162" data-name="Grupo 1144162" transform="translate(0 26.643)">
            <path id="Trazado_978699" data-name="Trazado 978699" d="M77.447,346.043a3.41,3.41,0,0,1-3.41,3.41H65.315a3.41,3.41,0,0,1,0-6.819h8.723A3.41,3.41,0,0,1,77.447,346.043Z" transform="translate(-61.905 -342.633)" fill="#ca6e59"/>
          </g>
          <g id="Grupo_1144163" data-name="Grupo 1144163" transform="translate(0 26.643)">
            <path id="Trazado_978700" data-name="Trazado 978700" d="M66.55,346.043a3.41,3.41,0,0,1,3.41-3.41H65.315a3.41,3.41,0,0,0,0,6.819h4.645A3.41,3.41,0,0,1,66.55,346.043Z" transform="translate(-61.905 -342.633)" fill="#bb5d4c"/>
          </g>
          <g id="Grupo_1144164" data-name="Grupo 1144164" transform="translate(0)">
            <path id="Trazado_978701" data-name="Trazado 978701" d="M77.447,154.538a3.41,3.41,0,0,1-3.41,3.41H65.315a3.41,3.41,0,0,1,0-6.819h8.723A3.41,3.41,0,0,1,77.447,154.538Z" transform="translate(-61.905 -151.128)" fill="#ca6e59"/>
          </g>
          <g id="Grupo_1144165" data-name="Grupo 1144165">
            <path id="Trazado_978702" data-name="Trazado 978702" d="M66.55,154.538a3.41,3.41,0,0,1,3.41-3.41H65.315a3.41,3.41,0,0,0,0,6.819h4.645A3.41,3.41,0,0,1,66.55,154.538Z" transform="translate(-61.905 -151.128)" fill="#bb5d4c"/>
          </g>
        </g>
      </g>
      <g id="Grupo_1144170" data-name="Grupo 1144170" transform="translate(27.171 7.528)">
        <g id="Grupo_1144168" data-name="Grupo 1144168" transform="translate(0)">
          <circle id="Elipse_11621" data-name="Elipse 11621" cx="9.762" cy="9.762" r="9.762" fill="#4fc123"/>
        </g>
        <g id="Grupo_1144169" data-name="Grupo 1144169" transform="translate(0)">
          <path id="Trazado_978703" data-name="Trazado 978703" d="M215.051,63.869a9.765,9.765,0,0,1,7.423-9.478,9.762,9.762,0,1,0,0,18.957A9.765,9.765,0,0,1,215.051,63.869Z" transform="translate(-210.372 -54.107)" fill="#47a920"/>
        </g>
      </g>
      <g id="Grupo_1144171" data-name="Grupo 1144171" transform="translate(0 0)">
        <path id="Trazado_978704" data-name="Trazado 978704" d="M77.583,33.225H75.9V15.165a1.044,1.044,0,0,0-1.075-1.043,1.072,1.072,0,0,0-1.011,1.087V33.225H66.822a1.043,1.043,0,0,0,0,2.087H77.583a2.446,2.446,0,0,1,0,4.891H56.265V35.312h5.688a1.043,1.043,0,1,0,0-2.087H56.014a1.839,1.839,0,0,0-1.686,1.11H46.947a1.74,1.74,0,0,0-1.62-1.11H42.278a1.741,1.741,0,0,0-1.62,1.11H36.186v-.9a2.433,2.433,0,0,0-1.18-2.082V28.7a4.453,4.453,0,0,0-1.281-8.718H30.206V2.087h43.61V10.3a1.044,1.044,0,0,0,1.075,1.043A1.072,1.072,0,0,0,75.9,10.252V1.739A1.739,1.739,0,0,0,74.164,0H29.858a1.739,1.739,0,0,0-1.739,1.739V19.983H25A4.453,4.453,0,0,0,23.721,28.7v2.657a2.433,2.433,0,0,0-1.18,2.082v8.636a2.433,2.433,0,0,0,1.18,2.082v2.657A4.453,4.453,0,0,0,25,55.532h3.117v3.622H19.964a2.438,2.438,0,0,0-2.435,2.435v1.728h-.016a2.438,2.438,0,0,0-2.435,2.435v3.741a1.741,1.741,0,0,0,1.739,1.739H74.164A1.739,1.739,0,0,0,75.9,69.494V42.29h1.68a4.532,4.532,0,0,0,0-9.065Zm-30.516,3.2h7.111v2.671H47.067Zm-4.441-1.11H44.98V40.2H42.626Zm-6.44,1.11h4.353v2.671H36.186ZM22.636,24.436A2.369,2.369,0,0,1,25,22.069h8.723a2.366,2.366,0,0,1,0,4.733H25a2.369,2.369,0,0,1-2.366-2.366Zm2.34,17.988a.348.348,0,0,1-.348-.348V33.439a.348.348,0,0,1,.348-.348h8.775a.348.348,0,0,1,.348.348v8.636a.348.348,0,0,1-.348.348Zm7.943,2.087v2.116H25.808V44.51ZM25.808,31V28.889h7.111V31ZM25,53.445a2.366,2.366,0,1,1,0-4.733h8.723a2.366,2.366,0,1,1,0,4.733Zm16.56,15.7h-24.4V65.752a.348.348,0,0,1,.348-.348h6.459a1.043,1.043,0,0,0,0-2.087H19.616V61.589a.348.348,0,0,1,.348-.348h18.8a.348.348,0,0,1,.348.348v1.728H28.841a1.043,1.043,0,0,0,0,2.087H41.215a.348.348,0,0,1,.348.348Zm32.253,0H43.65V65.752a2.438,2.438,0,0,0-2.435-2.435H41.2V61.589a2.438,2.438,0,0,0-2.435-2.435H30.206V55.532h3.519a4.453,4.453,0,0,0,1.281-8.718V44.158a2.433,2.433,0,0,0,1.18-2.082v-.9h4.473a1.74,1.74,0,0,0,1.62,1.11h3.049a1.741,1.741,0,0,0,1.62-1.11h7.381a1.839,1.839,0,0,0,1.686,1.11h17.8V69.146Z" transform="translate(-15.078 0)"/>
        <path id="Trazado_978705" data-name="Trazado 978705" d="M202.872,57.413a10.806,10.806,0,1,0,10.806-10.806A10.818,10.818,0,0,0,202.872,57.413Zm19.525,0a8.719,8.719,0,1,1-8.719-8.719A8.729,8.729,0,0,1,222.4,57.413Z" transform="translate(-176.745 -40.123)"/>
        <path id="Trazado_978706" data-name="Trazado 978706" d="M248.125,103.23a1.043,1.043,0,1,0-1.476,1.476l3.21,3.21a1.044,1.044,0,0,0,1.476,0l4.975-4.975a1.043,1.043,0,1,0-1.476-1.476L250.6,105.7Z" transform="translate(-214.168 -87.085)"/>
        <path id="Trazado_978707" data-name="Trazado 978707" d="M243.681,328.113a1.043,1.043,0,0,0,1.043,1.043h19.19a1.043,1.043,0,1,0,0-2.087h-19.19A1.043,1.043,0,0,0,243.681,328.113Z" transform="translate(-211.876 -281.565)"/>
        <path id="Trazado_978708" data-name="Trazado 978708" d="M321.437,363.546h-9.893a1.043,1.043,0,0,0,0,2.087h9.893a1.043,1.043,0,1,0,0-2.087Z" transform="translate(-269.399 -312.967)"/>
        <path id="Trazado_978709" data-name="Trazado 978709" d="M244.724,365.633H250.4a1.043,1.043,0,1,0,0-2.087h-5.679a1.043,1.043,0,1,0,0,2.087Z" transform="translate(-211.876 -312.967)"/>
        <path id="Trazado_978710" data-name="Trazado 978710" d="M263.913,400.023h-19.19a1.043,1.043,0,1,0,0,2.087h19.19a1.043,1.043,0,1,0,0-2.087Z" transform="translate(-211.875 -344.369)"/>
        <path id="Trazado_978711" data-name="Trazado 978711" d="M351.567,436.5h-5.024a1.043,1.043,0,0,0,0,2.087h5.024a1.043,1.043,0,1,0,0-2.087Z" transform="translate(-299.53 -375.771)"/>
        <path id="Trazado_978712" data-name="Trazado 978712" d="M255.69,436.5H244.724a1.043,1.043,0,1,0,0,2.087H255.69a1.043,1.043,0,1,0,0-2.087Z" transform="translate(-211.876 -375.771)"/>
      </g>
    </g>
  </g>
</svg>
