<svg xmlns="http://www.w3.org/2000/svg" xmlns:xlink="http://www.w3.org/1999/xlink" width="108" height="108" viewBox="0 0 108 108">
  <defs>
    <filter id="Trazado_978624" x="0" y="0" width="108" height="108" filterUnits="userSpaceOnUse">
      <feOffset dy="3" input="SourceAlpha"/>
      <feGaussianBlur stdDeviation="3" result="blur"/>
      <feFlood flood-opacity="0.161"/>
      <feComposite operator="in" in2="blur"/>
      <feComposite in="SourceGraphic"/>
    </filter>
    <clipPath id="clip-path">
      <path id="path2610" d="M0-682.665H76.508v76.508H0Z" transform="translate(0 682.665)"/>
    </clipPath>
  </defs>
  <g id="_16" data-name="16" transform="translate(-200 -328)">
    <g id="Grupo_1144122" data-name="Grupo 1144122" transform="translate(13 -1525)">
      <g transform="matrix(1, 0, 0, 1, 187, 1853)" filter="url(#Trazado_978624)">
        <g id="Trazado_978624-2" data-name="Trazado 978624" transform="translate(9 6)" fill="#f5e9a1">
          <path d="M 45 88.5 C 39.12687683105469 88.5 33.43022537231445 87.35007476806641 28.06830024719238 85.08217620849609 C 22.88852500915527 82.89131164550781 18.23629951477051 79.75458526611328 14.2408504486084 75.75914764404297 C 10.24541282653809 71.76370239257812 7.108687400817871 67.11147308349609 4.917825222015381 61.93170166015625 C 2.649924993515015 56.56977462768555 1.5 50.87312316894531 1.5 45 C 1.5 39.12687683105469 2.649924993515015 33.43022537231445 4.917825222015381 28.06830024719238 C 7.108687400817871 22.88852500915527 10.24541282653809 18.23629951477051 14.2408504486084 14.2408504486084 C 18.23629951477051 10.24541282653809 22.88852500915527 7.108687400817871 28.06830024719238 4.917825222015381 C 33.43022537231445 2.649924993515015 39.12687683105469 1.5 45 1.5 C 50.87312316894531 1.5 56.56977462768555 2.649924993515015 61.93170166015625 4.917825222015381 C 67.11147308349609 7.108687400817871 71.76370239257812 10.24541282653809 75.75914764404297 14.2408504486084 C 79.75458526611328 18.23629951477051 82.89131164550781 22.88852500915527 85.08217620849609 28.06830024719238 C 87.35007476806641 33.43022537231445 88.5 39.12687683105469 88.5 45 C 88.5 50.87312316894531 87.35007476806641 56.56977462768555 85.08217620849609 61.93170166015625 C 82.89131164550781 67.11147308349609 79.75458526611328 71.76370239257812 75.75914764404297 75.75914764404297 C 71.76370239257812 79.75458526611328 67.11147308349609 82.89131164550781 61.93170166015625 85.08217620849609 C 56.56977462768555 87.35007476806641 50.87312316894531 88.5 45 88.5 Z" stroke="none"/>
          <path d="M 45 3 C 39.32871246337891 3 33.82865524291992 4.110054016113281 28.65262985229492 6.299339294433594 C 23.65165710449219 8.414573669433594 19.15968322753906 11.44334411621094 15.301513671875 15.301513671875 C 11.44334411621094 19.15968322753906 8.414573669433594 23.65165710449219 6.299339294433594 28.65262985229492 C 4.110054016113281 33.82865524291992 3 39.32871246337891 3 45 C 3 50.67128753662109 4.110054016113281 56.17134475708008 6.299339294433594 61.34737396240234 C 8.414573669433594 66.34834289550781 11.44334411621094 70.84031677246094 15.301513671875 74.698486328125 C 19.15968322753906 78.55665588378906 23.65165710449219 81.58542633056641 28.65262985229492 83.70066070556641 C 33.82865524291992 85.88994598388672 39.32871246337891 87 45 87 C 50.67128753662109 87 56.17134475708008 85.88994598388672 61.34737396240234 83.70066070556641 C 66.34834289550781 81.58542633056641 70.84031677246094 78.55665588378906 74.698486328125 74.698486328125 C 78.55665588378906 70.84031677246094 81.58542633056641 66.34834289550781 83.70066070556641 61.34737396240234 C 85.88994598388672 56.17134475708008 87 50.67128753662109 87 45 C 87 39.32871246337891 85.88994598388672 33.82865524291992 83.70066070556641 28.65262985229492 C 81.58542633056641 23.65165710449219 78.55665588378906 19.15968322753906 74.698486328125 15.301513671875 C 70.84031677246094 11.44334411621094 66.34834289550781 8.414573669433594 61.34737396240234 6.299339294433594 C 56.17134475708008 4.110054016113281 50.67128753662109 3 45 3 M 45 0 C 69.85281372070312 0 90 20.14718627929688 90 45 C 90 69.85281372070312 69.85281372070312 90 45 90 C 20.14718627929688 90 0 69.85281372070312 0 45 C 0 20.14718627929688 20.14718627929688 0 45 0 Z" stroke="none" fill="#bcac89"/>
        </g>
      </g>
    </g>
    <g id="g2604" transform="translate(215.746 1023.411)">
      <g id="g2606" transform="translate(0 -682.665)">
        <g id="g2608" clip-path="url(#clip-path)">
          <g id="g2614" transform="translate(1.028 1.082)">
            <path id="path2616" d="M-.072-66.884-.082-70a5.2,5.2,0,0,1,5.2-5.194l45.235-.132c-2.879.009-14.254,2.36-14.246,5.221l.009,3.116Z" transform="translate(0.082 75.326)" fill="#d9dfeb"/>
          </g>
          <g id="g2618" transform="translate(6.08 1.082)">
            <path id="path2620" d="M-401.169-508.214l-.172-58.983a5.2,5.2,0,0,0-5.228-5.164l-45.235.132a5.2,5.2,0,0,1,5.228,5.164l.172,58.983a5.2,5.2,0,0,0,5.228,5.164l45.235-.132a5.2,5.2,0,0,1-5.228-5.164" transform="translate(451.804 572.36)" fill="#f0f3fa"/>
          </g>
          <g id="g2622" transform="translate(16.297 1.082)">
            <path id="path2624" d="M-320.216-508.214l-.172-58.983a5.2,5.2,0,0,0-5.228-5.164l-5.567.016a5.192,5.192,0,0,1,4.818,5.147l.172,58.983a5.2,5.2,0,0,0,5.228,5.164l-39.668.116c.136.01.272.017.41.016l45.235-.132a5.2,5.2,0,0,1-5.228-5.164" transform="translate(360.634 572.36)" fill="#e8ecf5"/>
          </g>
          <g id="g2626" transform="translate(16.706 62.082)">
            <path id="path2628" d="M-399.492,0l.009,3.116a5.2,5.2,0,0,1-5.2,5.194l-45.235.132a5.2,5.2,0,0,0,5.2-5.194l-.009-3.116Z" transform="translate(449.915)" fill="#d9dfeb"/>
          </g>
          <g id="g2630" transform="translate(49.268 42.383)">
            <path id="path2632" d="M-186.789,0l-23.576.069.033,11.441a10.759,10.759,0,0,0,1.742,5.836,9.055,9.055,0,0,1,1.74,5.046l.031,10.57,14.919-.043-.031-10.644a7.625,7.625,0,0,1,2.236-5.413l2.066-2.067a11.642,11.642,0,0,0,3.415-8.266l-.012-3.995A2.549,2.549,0,0,0-186.789,0" transform="translate(210.365 0)" fill="#e68d35"/>
          </g>
          <g id="g2634" transform="translate(59.465 32.631)">
            <path id="path2636" d="M-35.859-107.238a2.556,2.556,0,0,1-1.936.891,2.549,2.549,0,0,1-2.563-2.534l-.027-9.342a2.549,2.549,0,0,1,2.548-2.549,2.549,2.549,0,0,1,2.563,2.534l.021,7.049" transform="translate(40.385 120.773)" fill="#e68d35"/>
          </g>
          <g id="g2638" transform="translate(60.526 32.631)">
            <path id="path2640" d="M-32.088-20.081a2.549,2.549,0,0,0-2.563-2.535,2.55,2.55,0,0,0-1.487.483,2.532,2.532,0,0,1,1.062,2.052l.018,9.172a2.87,2.87,0,0,1-1,2.192c-.023.02-.042.035-.055.045a2.551,2.551,0,0,0,1.5.483,2.556,2.556,0,0,0,1.936-.891l.606-3.952Z" transform="translate(36.139 22.616)" fill="#d47619"/>
          </g>
          <g id="g2642" transform="translate(64.576 33.453)">
            <path id="path2644" d="M-40.633-70.823l-5.108.015,0,0-.019-6.395a2.55,2.55,0,0,1,2.543-2.558h.011A2.55,2.55,0,0,1-40.65-77.22l.019,6.395a0,0,0,0,1,0,0" transform="translate(45.761 79.763)" fill="#e68d35"/>
          </g>
          <g id="g2646" transform="translate(64.595 33.453)">
            <path id="path2648" d="M-40.35-20.145a2.55,2.55,0,0,0-2.558-2.543h-.011a2.536,2.536,0,0,0-1.481.483,2.545,2.545,0,0,1,1.062,2.06l.019,6.395v0l-2.121.006v.007l0,0,5.108-.015v0Z" transform="translate(45.443 22.688)" fill="#d47619"/>
          </g>
          <g id="g2650" transform="translate(49.253 34.705)">
            <path id="path2652" d="M-20.476-82.964h-.011a2.55,2.55,0,0,1-2.558-2.543l-.016-5.371a2.55,2.55,0,0,1,2.543-2.558h.011a2.55,2.55,0,0,1,2.558,2.543l.016,5.371a2.55,2.55,0,0,1-2.543,2.558" transform="translate(23.06 93.436)" fill="#e68d35"/>
          </g>
          <g id="g2654" transform="translate(50.314 34.705)">
            <path id="path2656" d="M-32.09-20.145a2.55,2.55,0,0,0-2.558-2.543h-.011a2.537,2.537,0,0,0-1.482.483,2.544,2.544,0,0,1,1.062,2.06l.016,5.371A2.544,2.544,0,0,1-36.124-12.7a2.536,2.536,0,0,0,1.5.483h.011a2.55,2.55,0,0,0,2.543-2.558Z" transform="translate(36.14 22.688)" fill="#d47619"/>
          </g>
          <g id="g2658" transform="translate(54.358 33.483)">
            <path id="path2660" d="M-20.532-102.091h-.011a2.55,2.55,0,0,1-2.558-2.543l-.023-7.786a2.55,2.55,0,0,1,2.543-2.558h.011a2.55,2.55,0,0,1,2.558,2.543l.023,7.786a2.55,2.55,0,0,1-2.543,2.558" transform="translate(23.124 114.977)" fill="#e68d35"/>
          </g>
          <g id="g2662" transform="translate(55.42 33.483)">
            <path id="path2664" d="M-32.088-20.145a2.55,2.55,0,0,0-2.558-2.543h-.011a2.536,2.536,0,0,0-1.481.483,2.545,2.545,0,0,1,1.062,2.06l.023,7.786a2.545,2.545,0,0,1-1.061,2.075,2.536,2.536,0,0,0,1.5.483h.011a2.55,2.55,0,0,0,2.543-2.558Z" transform="translate(36.139 22.688)" fill="#d47619"/>
          </g>
          <g id="g2666" transform="translate(62.329 42.383)">
            <path id="path2668" d="M0-116.86H0a7.71,7.71,0,0,1,7.709-7.71L7.7-126.519l-2.589.008a4.268,4.268,0,0,1-4.293-4.244.829.829,0,0,1,.829-.829l8.865-.026a2.549,2.549,0,0,1,2.563,2.534l.012,3.995a11.643,11.643,0,0,1-3.415,8.266l-2.066,2.067a7.624,7.624,0,0,0-2.236,5.413L5.4-98.692" transform="translate(0 131.61)" fill="#e68d35"/>
          </g>
          <g id="g2670" transform="translate(23.432 7.266)">
            <path id="path2672" d="M-56-24.141c-.066.143-.13.29-.193.443a18.622,18.622,0,0,0-1.192,6h-3.361A8.432,8.432,0,0,1-56-24.141m11.926,6.446h-3.361a18.622,18.622,0,0,0-1.192-6c-.062-.153-.127-.3-.192-.443a8.433,8.433,0,0,1,4.745,6.446M-48.817-8.93a17.532,17.532,0,0,0,1.388-6.523h3.367A8.431,8.431,0,0,1-48.817-8.93m-.855-6.523c-.221,4.752-1.863,7.329-2.736,7.329s-2.515-2.577-2.736-7.329Zm-2.736-9.493c.868,0,2.5,2.55,2.732,7.252H-55.14c.235-4.7,1.863-7.252,2.732-7.252m-8.345,9.493h3.367A17.532,17.532,0,0,0-56-8.93a8.431,8.431,0,0,1-4.755-6.523m8.345,9.57A10.668,10.668,0,0,0-41.749-16.536,10.668,10.668,0,0,0-52.408-27.188,10.667,10.667,0,0,0-63.067-16.536,10.667,10.667,0,0,0-52.408-5.883" transform="translate(63.067 27.188)" fill="#060606"/>
          </g>
          <g id="g2674" transform="translate(15.57 16.831)">
            <path id="path2676" d="M-8.879-32.2A1.121,1.121,0,0,0-10-31.082a1.121,1.121,0,0,0,1.121,1.121h3.2a15.062,15.062,0,0,0,1.01,2.18H-6.642A1.121,1.121,0,0,0-7.763-26.66,1.121,1.121,0,0,0-6.642-25.54H-3.13a15.274,15.274,0,0,0,1.92,1.932h-1.4a1.121,1.121,0,0,0-1.121,1.121,1.121,1.121,0,0,0,1.121,1.121H2.363a15.053,15.053,0,0,0,6.157,1.31,15.054,15.054,0,0,0,6.157-1.31h4.978a1.121,1.121,0,0,0,1.121-1.121,1.121,1.121,0,0,0-1.121-1.121h-1.4a15.263,15.263,0,0,0,1.92-1.932h3.512A1.121,1.121,0,0,0,24.8-26.66a1.121,1.121,0,0,0-1.121-1.121H21.714a15.03,15.03,0,0,0,1.01-2.18h3.2a1.121,1.121,0,0,0,1.121-1.121A1.121,1.121,0,0,0,25.92-32.2H23.358a15.126,15.126,0,0,0,.3-2.978,1.121,1.121,0,0,0-2.241,0A13.045,13.045,0,0,1,8.52-22.3,13.044,13.044,0,0,1-4.371-35.18a1.121,1.121,0,0,0-2.241,0,15.137,15.137,0,0,0,.3,2.978Z" transform="translate(10 36.267)" fill="#060606"/>
          </g>
          <g id="g2678" transform="translate(23.292 38.674)">
            <path id="path2680" d="M-162.224,0h-19.355A1.121,1.121,0,0,0-182.7,1.121a1.121,1.121,0,0,0,1.121,1.121h19.355A1.121,1.121,0,0,0-161.1,1.121,1.121,1.121,0,0,0-162.224,0" transform="translate(182.7)" fill="#060606"/>
          </g>
          <g id="g2682" transform="translate(23.519 44.958)">
            <path id="path2684" d="M-8.879-17.758h18.9a1.121,1.121,0,0,0,1.121-1.121A1.121,1.121,0,0,0,10.021-20h-18.9A1.121,1.121,0,0,0-10-18.879a1.121,1.121,0,0,0,1.121,1.121" transform="translate(10 20)" fill="#060606"/>
          </g>
          <g id="g2686" transform="translate(23.292 51.242)">
            <path id="path2688" d="M-8.879-17.758H10.476A1.121,1.121,0,0,0,11.6-18.879,1.121,1.121,0,0,0,10.476-20H-8.879A1.121,1.121,0,0,0-10-18.879a1.121,1.121,0,0,0,1.121,1.121" transform="translate(10 20)" fill="#060606"/>
          </g>
          <g id="g2690" transform="translate(66.504 58.213)">
            <path id="path2692" d="M-20.459-2.608a8.687,8.687,0,0,0-2.582,6.2V14.237a1.121,1.121,0,0,0,2.241,0V3.593a6.461,6.461,0,0,1,1.921-4.612,1.121,1.121,0,0,0-1.581-1.589" transform="translate(23.041 2.937)" fill="#060606"/>
          </g>
          <g id="g2694" transform="translate(0 0)">
            <path id="path2696" d="M-520.57-327.713v-5.325a1.437,1.437,0,0,1,2.868.049v5.276Zm-5.112,3.221v-9.342a1.43,1.43,0,0,1,1.435-1.421,1.43,1.43,0,0,1,1.435,1.421l0,6.19a1.95,1.95,0,0,0-1.447,1.879,5.325,5.325,0,0,0,.646,2.548,1.446,1.446,0,0,1-2.067-1.274m-3.668.718a1.453,1.453,0,0,1-1.44-1.429v-7.786a1.437,1.437,0,0,1,2.867-.049v7.884a1.43,1.43,0,0,1-1.427,1.38m-5.109-1.207h-.011a1.431,1.431,0,0,1-1.429-1.429v-5.371a1.437,1.437,0,0,1,2.868-.049v5.469a1.43,1.43,0,0,1-1.427,1.38m-30.364,25.245a6.252,6.252,0,0,0,1.493-4.058v-2h28.448a6.359,6.359,0,0,1,.191,1.53v4.523Zm-19.211-61.046v-2a4.078,4.078,0,0,1,4.019-4.056A4.079,4.079,0,0,1-576-362.777v2Zm70.59,33.069h-2.017v-5.276a3.717,3.717,0,0,0-5.808-2.99,3.677,3.677,0,0,0-2.978-1.518,3.678,3.678,0,0,0-2.978,1.519,3.669,3.669,0,0,0-1.294-.585v-26.215a6.324,6.324,0,0,0-6.334-6.3h-29.058a1.121,1.121,0,0,0,0,2.241h29.058a4.08,4.08,0,0,1,4.092,4.058v26.395a3.693,3.693,0,0,0-1.743,1.5,3.718,3.718,0,0,0-5.637,3.1v16.63a13.793,13.793,0,0,0,2.323,7.121h-28.633a1.121,1.121,0,0,0-1.121,1.121v3.116a4.08,4.08,0,0,1-4.091,4.058,4.08,4.08,0,0,1-4.091-4.058v-58.983a6.252,6.252,0,0,0-1.493-4.058h4.96a1.121,1.121,0,0,0,0-2.241c-3.254,0-9.922.007-9.922.007a6.322,6.322,0,0,0-6.067,6.293v3.116a1.121,1.121,0,0,0,1.121,1.121H-576v54.746a6.324,6.324,0,0,0,6.331,6.3h34.974v3.806a1.121,1.121,0,0,0,2.241,0v-10.57a10.086,10.086,0,0,0-1.909-5.666,9.617,9.617,0,0,1-1.541-5.226v-7.878a3.748,3.748,0,0,0,3.4-.277,3.715,3.715,0,0,0,5.344,1.046,3.729,3.729,0,0,0,5.023.766,5.729,5.729,0,0,0,3.6,1.106,8.833,8.833,0,0,0-6.584,8.516,1.121,1.121,0,0,0,2.241,0,6.6,6.6,0,0,1,6.611-6.567,1.121,1.121,0,0,0,1.121-1.121v-1.948a1.121,1.121,0,0,0-1.121-1.121h-2.589a3.155,3.155,0,0,1-3.146-2.841h8.562a1.43,1.43,0,0,1,1.435,1.421v3.995a10.542,10.542,0,0,1-1.246,4.961,1.121,1.121,0,0,0,1.976,1.058,12.792,12.792,0,0,0,1.512-6.019v-3.995a3.674,3.674,0,0,0-3.677-3.662" transform="translate(586.276 369.076)" fill="#060606"/>
          </g>
        </g>
      </g>
    </g>
  </g>
</svg>
